<svg width="93" height="213" viewBox="0 0 93 213" fill="none" xmlns="http://www.w3.org/2000/svg">
<g clip-path="url(#clip0_122_2369)">
<path d="M42.9227 0.266235C44.9158 1.12909 46.7749 2.01668 48.6589 2.84773C50.4827 3.65222 52.3346 3.5931 54.2256 2.9989C56.2443 2.36452 58.2671 1.68209 60.3391 1.29219C63.9514 0.612417 66.8026 3.00786 66.9889 6.68063C67.0114 7.12324 67.0028 7.56788 67.0371 8.00936C67.2015 10.1247 67.7365 10.7848 69.7637 11.3897C71.4122 11.8817 73.1208 12.2278 74.6995 12.8871C78.7847 14.5931 80.1009 18.2386 77.7634 21.9388C75.9616 24.7912 76.2924 27.2084 78.1841 29.7509C79.0762 30.9499 79.9305 32.227 80.5215 33.5906C81.8124 36.5693 80.8625 39.1595 78.0589 40.8359C77.7188 41.0393 77.367 41.2296 77.0038 41.3869C73.2333 43.019 72.5439 44.3198 73.2964 48.4395C73.6098 50.1557 73.9269 51.8541 72.6376 53.3685C71.5158 54.6863 70.0247 54.9075 68.4368 54.9215C66.6726 54.937 64.9085 54.9663 62.9707 54.9932C62.5942 54.767 62.3938 54.535 62.188 54.3079C59.7652 51.6342 57.3891 48.8992 53.7199 47.7257C53.5352 46.903 53.3759 46.1755 53.2121 45.4276C53.416 45.3051 53.5576 45.2028 53.7128 45.1293C57.438 43.365 60.7167 41.0131 63.4224 37.8685C63.7133 37.5305 64.3257 37.384 64.8122 37.3164C66.6687 37.0584 68.3557 36.4234 69.6067 35.0012C70.7952 33.65 71.53 32.0259 70.8235 30.2349C70.1708 28.5807 68.6361 28.1805 66.9903 28.1645C66.7708 28.1623 66.5515 28.1156 66.3324 28.0871C63.0604 27.6619 61.9568 26.7695 61.4069 23.8618C60.9491 21.4406 59.8049 19.8676 57.2138 19.3983C54.9795 18.9936 53.8925 17.6513 53.6324 15.3769C53.5227 14.4174 53.6142 13.4348 53.6142 12.2787C52.2463 13.8988 50.6196 14.7355 48.7862 14.8978C46.9139 15.0635 45.0012 15.0247 43.1265 14.853C39.6358 14.5333 38.1376 15.4305 37.1867 18.7734C36.6933 20.508 35.7166 21.8636 34.0392 22.4774C32.1439 23.1709 30.1824 23.71 28.2144 24.162C27.5415 24.3165 27.1436 24.4398 27.1383 25.1625C27.1164 28.1657 26.8237 31.1969 27.1279 34.1667C27.8923 41.6308 33.0792 46.9084 40.4706 47.5257C42.828 47.7225 44.0096 48.3163 44.0691 50.6302C42.7458 49.6643 41.8842 50.1805 40.9847 51.2002C38.3692 54.1648 36.355 57.4877 34.7907 61.107C34.5189 61.7359 34.0982 62.3001 33.7462 62.8943C32.2133 62.1222 31.7039 60.7356 31.6378 59.1629C31.5727 57.6142 31.6564 56.0598 31.6389 54.5083C31.6184 52.6807 31.1154 52.0338 29.3157 51.6857C27.5798 51.35 25.7899 51.2475 24.0877 50.7987C22.7936 50.4575 21.4533 49.9315 20.392 49.1398C18.1645 47.4782 17.773 45.089 19.0557 42.6299C19.3629 42.0411 19.7081 41.4724 20.0245 40.8883C21.3977 38.3524 21.0351 36.9129 18.6394 35.2523C17.4062 34.3976 16.0744 33.6389 14.9974 32.6148C12.958 30.6759 13.126 27.3903 15.265 25.5515C16.1686 24.7748 17.1742 24.1136 18.1564 23.4333C19.5813 22.4463 20.1648 21.1154 19.8592 19.41C19.578 17.8402 19.2192 16.2827 18.9868 14.7062C18.4015 10.7348 20.66 7.94351 24.6799 7.68918C26.0453 7.60279 27.4221 7.65919 28.7924 7.69885C30.6074 7.75139 32.1887 7.32834 33.4013 5.84206C34.1555 4.91764 34.9578 4.00954 35.8584 3.23401C37.0228 2.23147 38.3068 1.36852 39.5654 0.35585C40.6609 0.266235 41.7302 0.266235 42.9227 0.266235Z" fill="#B3563B"/>
<path d="M62.92 56.9253C65.7003 62.1023 68.5873 67.2253 71.2281 72.4728C73.4533 76.8947 75.3845 81.4649 77.4607 85.9626C79.3906 90.1431 81.3754 94.2985 83.2687 98.4954C84.5413 101.316 86.6451 103.279 89.2017 104.91C90.5969 105.799 91.823 106.955 93.1955 108.044C93.2657 108.097 93.2657 108.231 93.1803 108.34C91.6787 108.875 90.2624 109.301 89.2565 109.603C90.2418 110.045 91.6285 110.666 93.0172 111.392C92.6979 113.598 90.7271 112.915 89.7938 113.429C90.8486 113.912 92.0571 114.466 93.2657 115.02C93.2657 115.22 93.2657 115.419 93.2657 115.719C91.2771 117.129 89.0748 116.859 86.8319 116.801C87.6626 117.15 88.4997 117.485 89.3214 117.853C89.7222 118.033 90.153 118.215 90.4625 118.51C90.7512 118.785 90.8972 119.21 91.106 119.569C90.7341 119.74 90.3734 120.026 89.9884 120.064C87.1925 120.341 84.6567 119.406 82.278 118.108C80.9389 117.377 79.7853 116.305 78.3981 115.293C76.4942 112.768 74.5604 110.444 73.0206 107.882C68.6491 100.61 64.3031 93.3158 60.207 85.8863C56.8762 79.8451 53.9095 73.6018 50.8331 67.4222C50.6795 67.1136 50.8759 66.3973 51.1556 66.1459C52.2697 65.1444 53.4738 64.2422 54.6585 63.3211C57.4081 61.1837 60.1657 59.0566 62.92 56.9253Z" fill="#FFCEA9"/>
<path d="M0.265747 107.399C2.22373 105.032 4.21786 102.795 6.12472 100.486C7.10458 99.2997 7.98685 98.0212 8.81311 96.7203C12.1431 91.4778 16.0914 86.7222 20.2225 82.1133C24.7519 77.06 28.6203 71.5238 32.255 65.8108C32.3932 65.5935 32.5823 65.4087 32.8488 65.2921C31.5307 70.1448 30.0339 74.8927 28.7118 79.6891C27.0627 85.6721 25.5575 91.6951 23.9079 97.7371C23.7673 97.9351 23.709 98.0969 23.6508 98.2517C23.651 98.2448 23.6646 98.2476 23.6646 98.2476C22.4261 99.6508 21.1548 101.026 19.9563 102.463C17.7563 105.1 17.3339 108.488 16.2042 111.577C15.7043 112.944 15.2377 114.327 14.6587 115.66C14.5025 116.02 13.9907 116.224 13.6421 116.5C13.4293 116.093 13.1477 115.707 13.0214 115.275C12.8657 114.743 12.8392 114.173 12.7228 113.389C12.2322 114.604 11.8938 115.607 11.4169 116.54C11.2296 116.906 10.7321 117.113 10.3759 117.392C10.1009 116.984 9.65758 116.603 9.58732 116.162C9.45879 115.356 9.55074 114.515 9.55074 113.528C9.0058 114.669 8.59217 115.686 8.03802 116.619C7.82339 116.98 7.27481 117.369 6.90781 117.343C6.60714 117.321 6.20114 116.737 6.10459 116.338C5.89953 115.491 5.86559 114.602 5.72683 113.44C5.42633 114.039 5.2788 114.52 4.9826 114.878C4.56329 115.385 4.03428 115.8 3.55215 116.254C3.25289 115.626 2.65379 114.971 2.70929 114.376C2.89272 112.412 3.30829 110.469 3.64565 108.52C3.70429 108.181 3.81578 107.852 3.86745 107.654C2.73057 107.833 1.58908 108.014 0.356666 108.146C0.265749 107.898 0.265749 107.698 0.265747 107.399ZM6.05739 112.648C6.03023 112.62 6.00306 112.592 5.97589 112.564C5.94905 112.593 5.89627 112.625 5.89984 112.65C5.91567 112.758 5.94768 112.863 5.97384 112.969C6.00766 112.902 6.04148 112.834 6.05739 112.648Z" fill="#FFCEAA"/>
<path d="M23.9902 97.7008C25.5575 91.6951 27.0627 85.6721 28.7118 79.6891C30.0339 74.8927 31.5307 70.1448 32.9388 65.2652C32.9277 65.155 32.942 65.0913 33.0176 65.0042C33.1362 64.7513 33.1791 64.5856 33.2219 64.4199C33.4016 63.9735 33.5813 63.5271 33.7536 62.9875C34.0982 62.3001 34.5189 61.7359 34.7907 61.107C36.355 57.4877 38.3692 54.1649 40.9847 51.2002C41.8842 50.1805 42.7458 49.6643 44.1431 50.6863C46.9288 51.5542 49.3865 50.9208 51.7068 49.7791C52.5121 49.3829 53.0729 48.4879 53.7454 47.8208C57.3891 48.8992 59.7652 51.6342 62.188 54.3079C62.3938 54.535 62.5942 54.767 62.8694 55.0428C63.1382 55.6435 63.9291 56.1719 62.9681 56.8505C60.1658 59.0566 57.4082 61.1837 54.6586 63.3212C53.4739 64.2422 52.2698 65.1444 51.1557 66.1459C50.876 66.3973 50.6796 67.1136 50.8332 67.4222C53.9096 73.6018 56.8763 79.8451 60.2071 85.8863C64.3032 93.3158 68.6492 100.61 73.0207 107.882C74.5605 110.444 76.4943 112.768 78.3211 115.253C79.2255 118.275 80.0377 121.251 80.8936 124.213C81.8369 127.478 82.7852 130.743 83.8083 133.984C84.1003 134.908 83.9367 135.342 83.0145 135.657C78.1357 137.32 73.2713 139.026 68.2199 140.779C62.3495 142.375 56.6039 143.605 50.7205 144.101C46.1306 143.836 41.5407 143.571 36.7332 143.285C34.4464 142.863 32.3691 142.498 30.3099 142.051C27.3067 141.398 24.3165 140.685 21.3208 139.998C18.2926 139.043 15.2641 138.089 12.2365 137.132C11.787 136.99 11.3416 136.834 10.771 136.644C11.7646 133.903 12.7465 131.306 13.6494 128.681C16.3843 120.733 19.1062 112.78 21.793 104.815C22.4982 102.725 23.0578 100.585 23.6745 98.3578C23.6646 98.2476 23.651 98.2448 23.7278 98.2134C23.8665 98.0216 23.9283 97.8612 23.9902 97.7008Z" fill="#9BB894"/>
<path d="M50.7336 144.199C56.6039 143.605 62.3495 142.375 68.1392 140.837C69.0371 144.081 69.5722 147.422 70.6959 150.55C72.1233 154.524 74.0279 158.327 75.6581 162.339C72.2602 164.678 68.9247 166.872 65.6095 169.096C65.1978 169.372 64.8936 169.809 64.5395 170.172C58.4017 162.371 53.4283 153.947 50.7336 144.199Z" fill="#FFCEA9"/>
<path d="M21.3019 140.112C24.3165 140.685 27.3067 141.398 30.3099 142.051C32.3692 142.498 34.4464 142.863 36.629 143.295C35.9619 146.31 35.0587 149.268 34.428 152.283C33.3112 157.623 32.36 162.997 31.3397 168.357C31.2573 168.79 31.1769 169.223 30.9697 169.763C30.4164 169.798 29.9844 169.745 29.5625 169.649C25.6531 168.752 21.7454 167.848 17.8372 166.947C18.1364 163.657 18.3463 160.356 18.7564 157.08C19.3362 152.449 20.0569 147.835 20.734 143.216C20.8808 142.214 21.0981 141.223 21.3019 140.112Z" fill="#FFCEA9"/>
<path d="M78.4067 166.547C79.4827 168.054 80.549 169.568 81.6388 171.064C82.2077 171.846 82.3007 172.699 81.6626 173.378C80.4351 174.685 79.2069 176.043 77.7683 177.089C74.3886 179.546 70.5691 180.974 66.3811 181.323C65.9871 181.356 65.5846 181.353 65.1913 181.314C63.869 181.182 63.5146 180.652 64.085 179.476C64.5446 178.528 65.2061 177.68 65.6958 176.745C66.1197 175.935 66.4282 175.064 66.9038 174.102C70.8155 171.505 74.6111 169.026 78.4067 166.547Z" fill="#3E4242"/>
<path d="M30.5181 174.96C30.3441 176.672 30.1838 178.387 29.9908 180.097C29.8741 181.132 29.2799 181.687 28.219 181.655C22.41 181.483 16.8344 180.355 11.7747 177.362C11.0592 176.938 10.6437 176.006 10.0894 175.309C10.8251 174.837 11.5136 174.251 12.3081 173.923C13.4007 173.471 14.5996 173.279 15.7009 172.844C16.2254 172.637 16.63 172.125 17.2671 171.715C21.8029 172.772 26.1605 173.866 30.5181 174.96Z" fill="#3E4243"/>
<path d="M78.3903 166.462C74.611 169.026 70.8155 171.505 66.9314 174.009C66.0894 172.805 65.3359 171.576 64.5609 170.259C64.8935 169.809 65.1977 169.372 65.6095 169.096C68.9247 166.872 72.2602 164.678 75.6734 162.434C76.6295 163.721 77.5017 165.049 78.3903 166.462Z" fill="#EFD694"/>
<path d="M30.5368 174.846C26.1605 173.866 21.8029 172.772 17.3367 171.648C17.4192 170.135 17.6104 168.652 17.8193 167.058C21.7453 167.848 25.653 168.752 29.5624 169.649C29.9843 169.745 30.4163 169.798 30.952 169.873C30.8921 171.494 30.7238 173.113 30.5368 174.846Z" fill="#EED694"/>
<path d="M33.1528 64.4738C33.1791 64.5856 33.1362 64.7514 33.0236 64.9721C32.9972 64.8607 33.0405 64.6942 33.1528 64.4738Z" fill="#FFCEAA"/>
<path d="M53.7199 47.7257C53.0729 48.488 52.512 49.3829 51.7068 49.7791C49.3864 50.9208 46.9288 51.5543 44.246 50.7037C44.0096 48.3163 42.8279 47.7226 40.4706 47.5257C33.0791 46.9085 27.8922 41.6309 27.1278 34.1667C26.8237 31.197 27.1164 28.1658 27.1383 25.1626C27.1435 24.4399 27.5414 24.3166 28.2144 24.162C30.1823 23.71 32.1438 23.171 34.0391 22.4775C35.7165 21.8637 36.6932 20.5081 37.1866 18.7734C38.1375 15.4306 39.6357 14.5334 43.1265 14.8531C45.0012 15.0248 46.9139 15.0635 48.7861 14.8978C50.6196 14.7356 52.2462 13.8989 53.6141 12.2788C53.6141 13.4348 53.5227 14.4174 53.6324 15.3769C53.8925 17.6514 54.9794 18.9937 57.2138 19.3984C59.8048 19.8677 60.949 21.4407 61.4069 23.8619C61.9568 26.7696 63.0604 27.662 66.3324 28.0872C66.5515 28.1156 66.7707 28.1624 66.9902 28.1645C68.636 28.1806 70.1708 28.5807 70.8234 30.235C71.53 32.026 70.7951 33.65 69.6066 35.0013C68.3557 36.4235 66.6686 37.0585 64.8121 37.3165C64.3257 37.3841 63.7133 37.5306 63.4224 37.8686C60.7166 41.0132 57.438 43.3651 53.7128 45.1294C53.5576 45.2029 53.4159 45.3052 53.2121 45.4277C53.3758 46.1756 53.5351 46.9031 53.7199 47.7257ZM33.6485 31.5875C33.3655 31.7089 33.0657 31.8017 32.8022 31.9564C31.4075 32.7758 30.4013 33.8796 30.273 35.5849C30.1333 37.4411 30.6944 39.0046 32.3225 40.016C34.5814 41.4192 37.3681 40.8248 38.7349 38.7058C40.2169 36.4083 39.6363 33.7923 37.4124 32.0042C38.7067 31.2176 39.339 30.0881 39.1109 28.5623C38.8408 26.755 37.5186 26.0769 35.6334 25.6999C36.4913 25.2544 37.1087 24.9338 37.8526 24.5475C35.9732 24.3317 34.3576 25.2308 33.3715 26.9165C32.4667 28.4631 32.5935 29.8846 33.6485 31.5875ZM53.0332 32.4293C52.8226 32.6561 52.5875 32.8647 52.4055 33.1125C51.2766 34.6501 50.8985 36.2844 51.7927 38.0788C52.6352 39.7692 53.9529 40.7303 55.8744 40.7434C57.8209 40.7566 59.2807 39.9051 60.1399 38.1483C61.6526 35.0551 59.7357 31.9781 56.0424 31.2184C56.7828 30.2933 57.0319 29.2718 56.6712 28.1186C56.1978 26.6048 54.9734 26.0419 53.3003 25.7123C54.1738 25.2497 54.7889 24.9239 55.5125 24.5406C53.2207 24.2584 51.0045 25.9649 50.5167 28.2462C50.0981 30.2043 51.0035 31.5996 53.0332 32.4293ZM49.869 39.4508C50.282 38.8158 50.695 38.1807 51.1081 37.5456C51.0145 37.4396 50.921 37.3337 50.8274 37.2277C47.1592 40.9208 43.6077 41.0663 40.2553 36.8476C39.8865 37.9195 40.5568 38.9918 42.0657 40.0204C44.5731 41.7297 47.4662 41.5675 49.869 39.4508ZM44.8289 31.3401C43.1419 30.7717 41.9284 31.1713 41.3524 32.4849C40.8503 33.6302 41.3146 35.0396 42.3957 35.5686C42.3957 35.1221 42.3083 34.668 42.4152 34.2656C42.5978 33.578 42.7268 32.6588 43.2102 32.3366C43.6048 32.0736 44.5171 32.4568 45.1376 32.7081C45.6652 32.9217 46.1039 33.3559 46.5819 33.6925C46.7009 33.564 46.8198 33.4354 46.9387 33.3069C46.2961 32.6768 45.6534 32.0467 44.8289 31.3401Z" fill="#FDCCA7"/>
<path d="M6.06633 112.707C6.04147 112.834 6.00765 112.902 5.97383 112.969C5.94767 112.863 5.91566 112.757 5.89983 112.65C5.89626 112.625 5.94904 112.593 5.97588 112.564C6.00305 112.592 6.03022 112.62 6.06633 112.707Z" fill="white"/>
<path d="M23.9079 97.7371C23.9283 97.8612 23.8665 98.0216 23.7276 98.2204C23.7089 98.0969 23.7673 97.9351 23.9079 97.7371Z" fill="white"/>
<path d="M12.8926 113.04C12.8786 113.05 12.9066 113.03 12.8926 113.04V113.04Z" fill="white"/>
<path d="M56.1432 31.1927C59.913 31.7705 61.8299 34.9009 60.3171 37.9941C59.4579 39.751 57.8208 40.8101 55.8743 40.7968C53.9528 40.7838 52.6351 39.7692 51.7927 38.0787C50.8984 36.2843 51.2765 34.65 52.4055 33.1125C52.5874 32.8647 52.8226 32.656 53.2 32.3496C54.2333 31.9801 55.9328 31.4175 56.1432 31.1927Z" fill="#F3715A"/>
<path d="M37.4657 31.95C39.8249 33.6055 40.2169 36.4083 38.7349 38.7057C37.3681 40.8247 34.5813 41.4191 32.3224 40.0159C30.6943 39.0045 30.1333 37.441 30.273 35.5849C30.4013 33.8796 31.4075 32.7758 32.8022 31.9564C33.0657 31.8016 33.3654 31.7088 33.7981 31.5532C34.9205 32.4671 36.2894 32.1039 37.4657 31.95Z" fill="#F2715A"/>
<path d="M56.0041 31.3093C55.0996 31.6902 54.2333 31.9801 53.2576 32.2857C51.0034 31.5996 50.098 30.2043 50.5167 28.2462C51.0044 25.9648 53.2207 24.2584 55.5124 24.5406C54.7888 24.9238 54.1738 25.2496 53.3003 25.7123C54.9733 26.0419 56.1977 26.6048 56.6711 28.1186C57.0318 29.2718 56.7827 30.2932 56.0041 31.3093Z" fill="#080605"/>
<path d="M37.3448 32.0704C36.1009 32.2906 34.9205 32.4671 33.8621 31.4871C32.5935 29.8845 32.4667 28.463 33.3714 26.9164C34.3575 25.2307 35.9732 24.3316 37.8526 24.5474C37.1086 24.9337 36.4913 25.2543 35.6334 25.6999C37.5185 26.0768 38.8407 26.7549 39.1109 28.5622C39.339 30.088 38.7066 31.2175 37.3448 32.0704Z" fill="#080605"/>
<path d="M49.8039 39.5205C47.4663 41.5675 44.5731 41.7297 42.0657 40.0204C40.5569 38.9918 39.8865 37.9195 40.2553 36.8475C43.6077 41.0663 47.1592 40.9208 50.8274 37.2277C50.921 37.3336 51.0146 37.4396 51.1081 37.5456C50.6951 38.1807 50.282 38.8157 49.8039 39.5205Z" fill="#181310"/>
<path d="M44.9199 31.3783C45.6534 32.0467 46.2961 32.6768 46.9387 33.3069C46.8198 33.4354 46.7009 33.564 46.582 33.6925C46.1039 33.3559 45.6652 32.9217 45.1376 32.7081C44.5171 32.4568 43.6049 32.0736 43.2102 32.3366C42.7268 32.6588 42.5978 33.578 42.4152 34.2656C42.3083 34.668 42.3957 35.1221 42.3957 35.5686C41.3147 35.0396 40.8503 33.6301 41.3524 32.4848C41.9284 31.1713 43.142 30.7717 44.9199 31.3783Z" fill="#1E1814"/>
</g>
<defs>
<clipPath id="clip0_122_2369">
<rect width="93" height="213" rx="6" fill="white"/>
</clipPath>
</defs>
</svg>
